<svg width="667" height="361" viewBox="0 0 667 361" fill="none" xmlns="http://www.w3.org/2000/svg">
  <path
    d="M361.53 39.5195L359.218 41.8242L356.178 40.6349C342.839 35.4162 328.317 32.5493 313.114 32.5493C272.461 32.5493 236.594 53.0623 215.287 84.3339L213.83 86.4733L211.241 86.5178C146.859 87.6244 95 140.199 95 204.898C95 262.302 135.828 310.171 190.008 321H566.992C621.172 310.171 662 262.302 662 204.898C662 145.323 618.026 96.0209 560.795 87.7282L557.789 87.2926L556.79 84.4241C540.684 38.1732 496.722 5 445.033 5C412.44 5 382.934 18.1809 361.53 39.5195Z"
    fill="white" stroke="#6be" stroke-width="20" />
  <path
    d="M265.842 111.885L268.153 114.188L271.192 113C282.747 108.482 295.328 106 308.5 106C343.72 106 374.792 123.759 393.252 150.833L394.709 152.971L397.297 153.015C453.076 153.973 498 199.491 498 255.5C498 305.171 462.663 346.6 415.755 356H87.2449C40.3367 346.6 5 305.171 5 255.5C5 203.927 43.0932 161.243 92.676 154.063L95.6817 153.628L96.681 150.76C110.633 110.72 148.719 82 193.5 82C221.737 82 247.299 93.4111 265.842 111.885Z"
    fill="white" stroke="#6be" stroke-width="20" />
</svg>
